<svg xmlns="http://www.w3.org/2000/svg" width="768" height="144" class="svglite" viewBox="0 0 576 108"><defs><style></style></defs><rect width="100%" height="100%" style="stroke:none;fill:none;stroke-linecap:round;stroke-linejoin:round;stroke-miterlimit:10"/><defs><clipPath id="cpMC4wMHw1NzYuMDB8MC4wMHwxMDguMDA="><path d="M0 0h576v108H0z" style="fill:none;stroke:#000;stroke-linecap:round;stroke-linejoin:round;stroke-miterlimit:10"/></clipPath></defs><g clip-path="url(#cpMC4wMHw1NzYuMDB8MC4wMHwxMDguMDA=)"><path d="M26.18 4.91h37.4v98.18h-37.4z" style="stroke-width:.21;stroke:none;stroke-linecap:butt;stroke-linejoin:miter;fill:#c70e7b;stroke-miterlimit:10"/><path d="M63.58 4.91h37.4v98.18h-37.4z" style="stroke-width:.21;stroke:none;stroke-linecap:butt;stroke-linejoin:miter;fill:#fc6882;stroke-miterlimit:10"/><path d="M100.99 4.91h37.4v98.18h-37.4z" style="stroke-width:.21;stroke:none;stroke-linecap:butt;stroke-linejoin:miter;fill:#007bc3;stroke-miterlimit:10"/><path d="M138.39 4.91h37.4v98.18h-37.4z" style="stroke-width:.21;stroke:none;stroke-linecap:butt;stroke-linejoin:miter;fill:#54bcd1;stroke-miterlimit:10"/><path d="M175.79 4.91h37.4v98.18h-37.4z" style="stroke-width:.21;stroke:none;stroke-linecap:butt;stroke-linejoin:miter;fill:#ef7c12;stroke-miterlimit:10"/><path d="M213.19 4.91h37.4v98.18h-37.4z" style="stroke-width:.21;stroke:none;stroke-linecap:butt;stroke-linejoin:miter;fill:#f4b95a;stroke-miterlimit:10"/><path d="M250.6 4.91H288v98.18h-37.4z" style="stroke-width:.21;stroke:none;stroke-linecap:butt;stroke-linejoin:miter;fill:#009f3f;stroke-miterlimit:10"/><path d="M288 4.91h37.4v98.18H288z" style="stroke-width:.21;stroke:none;stroke-linecap:butt;stroke-linejoin:miter;fill:#8fda04;stroke-miterlimit:10"/><path d="M325.4 4.91h37.4v98.18h-37.4z" style="stroke-width:.21;stroke:none;stroke-linecap:butt;stroke-linejoin:miter;fill:#af6125;stroke-miterlimit:10"/><path d="M362.81 4.91h37.4v98.18h-37.4z" style="stroke-width:.21;stroke:none;stroke-linecap:butt;stroke-linejoin:miter;fill:#f4e3c7;stroke-miterlimit:10"/><path d="M400.21 4.91h37.4v98.18h-37.4z" style="stroke-width:.21;stroke:none;stroke-linecap:butt;stroke-linejoin:miter;fill:#b25d91;stroke-miterlimit:10"/><path d="M437.61 4.91h37.4v98.18h-37.4z" style="stroke-width:.21;stroke:none;stroke-linecap:butt;stroke-linejoin:miter;fill:#efc7e6;stroke-miterlimit:10"/><path d="M475.01 4.91h37.4v98.18h-37.4z" style="stroke-width:.21;stroke:none;stroke-linecap:butt;stroke-linejoin:miter;fill:#ef7c12;stroke-miterlimit:10"/><path d="M512.42 4.91h37.4v98.18h-37.4z" style="stroke-width:.21;stroke:none;stroke-linecap:butt;stroke-linejoin:miter;fill:#f4b95a;stroke-miterlimit:10"/></g></svg>