<svg xmlns="http://www.w3.org/2000/svg" width="768" height="144" class="svglite" viewBox="0 0 576 108"><defs><style></style></defs><rect width="100%" height="100%" style="stroke:none;fill:none;stroke-linecap:round;stroke-linejoin:round;stroke-miterlimit:10"/><defs><clipPath id="cpMC4wMHw1NzYuMDB8MC4wMHwxMDguMDA="><path d="M0 0h576v108H0z" style="fill:none;stroke:#000;stroke-linecap:round;stroke-linejoin:round;stroke-miterlimit:10"/></clipPath></defs><g clip-path="url(#cpMC4wMHw1NzYuMDB8MC4wMHwxMDguMDA=)"><path d="M26.18 4.91h29.09v98.18H26.18z" style="stroke-width:.21;stroke:none;stroke-linecap:butt;stroke-linejoin:miter;fill:#000;stroke-miterlimit:10"/><path d="M55.27 4.91h29.09v98.18H55.27z" style="stroke-width:.21;stroke:none;stroke-linecap:butt;stroke-linejoin:miter;fill:#000002;stroke-miterlimit:10"/><path d="M84.36 4.91h29.09v98.18H84.36z" style="stroke-width:.21;stroke:none;stroke-linecap:butt;stroke-linejoin:miter;fill:#010000;stroke-miterlimit:10"/><path d="M113.45 4.91h29.09v98.18h-29.09z" style="stroke-width:.21;stroke:none;stroke-linecap:butt;stroke-linejoin:miter;fill:#000100;stroke-miterlimit:10"/><path d="M142.55 4.91h29.09v98.18h-29.09z" style="stroke-width:.21;stroke:none;stroke-linecap:butt;stroke-linejoin:miter;fill:#000004;stroke-miterlimit:10"/><path d="M171.64 4.91h29.09v98.18h-29.09z" style="stroke-width:.21;stroke:none;stroke-linecap:butt;stroke-linejoin:miter;fill:#7f1845;stroke-miterlimit:10"/><path d="M200.73 4.91h29.09v98.18h-29.09z" style="stroke-width:.21;stroke:none;stroke-linecap:butt;stroke-linejoin:miter;fill:#821849;stroke-miterlimit:10"/><path d="M229.82 4.91h29.09v98.18h-29.09z" style="stroke-width:.21;stroke:none;stroke-linecap:butt;stroke-linejoin:miter;fill:#7e1848;stroke-miterlimit:10"/><path d="M258.91 4.91H288v98.18h-29.09z" style="stroke-width:.21;stroke:none;stroke-linecap:butt;stroke-linejoin:miter;fill:#801948;stroke-miterlimit:10"/><path d="M288 4.91h29.09v98.18H288z" style="stroke-width:.21;stroke:none;stroke-linecap:butt;stroke-linejoin:miter;fill:#801849;stroke-miterlimit:10"/><path d="M317.09 4.91h29.09v98.18h-29.09z" style="stroke-width:.21;stroke:none;stroke-linecap:butt;stroke-linejoin:miter;fill:#5f3be7;stroke-miterlimit:10"/><path d="M346.18 4.91h29.09v98.18h-29.09z" style="stroke-width:.21;stroke:none;stroke-linecap:butt;stroke-linejoin:miter;fill:#5f3ae9;stroke-miterlimit:10"/><path d="M375.27 4.91h29.09v98.18h-29.09z" style="stroke-width:.21;stroke:none;stroke-linecap:butt;stroke-linejoin:miter;fill:#6138ea;stroke-miterlimit:10"/><path d="M404.36 4.91h29.09v98.18h-29.09z" style="stroke-width:.21;stroke:none;stroke-linecap:butt;stroke-linejoin:miter;fill:#9bef59;stroke-miterlimit:10"/><path d="M433.45 4.91h29.09v98.18h-29.09z" style="stroke-width:.21;stroke:none;stroke-linecap:butt;stroke-linejoin:miter;fill:#9eed5c;stroke-miterlimit:10"/><path d="M462.55 4.91h29.09v98.18h-29.09z" style="stroke-width:.21;stroke:none;stroke-linecap:butt;stroke-linejoin:miter;fill:#9eee5b;stroke-miterlimit:10"/><path d="M491.64 4.91h29.09v98.18h-29.09z" style="stroke-width:.21;stroke:none;stroke-linecap:butt;stroke-linejoin:miter;fill:#9fef5c;stroke-miterlimit:10"/><path d="M520.73 4.91h29.09v98.18h-29.09z" style="stroke-width:.21;stroke:none;stroke-linecap:butt;stroke-linejoin:miter;fill:#f5c767;stroke-miterlimit:10"/></g></svg>