<svg xmlns="http://www.w3.org/2000/svg" width="768" height="144" class="svglite" viewBox="0 0 576 108"><defs><style></style></defs><rect width="100%" height="100%" style="stroke:none;fill:none;stroke-linecap:round;stroke-linejoin:round;stroke-miterlimit:10"/><defs><clipPath id="cpMC4wMHw1NzYuMDB8MC4wMHwxMDguMDA="><path d="M0 0h576v108H0z" style="fill:none;stroke:#000;stroke-linecap:round;stroke-linejoin:round;stroke-miterlimit:10"/></clipPath></defs><g clip-path="url(#cpMC4wMHw1NzYuMDB8MC4wMHwxMDguMDA=)"><path d="M26.18 4.91h27.56v98.18H26.18z" style="stroke-width:.21;stroke:none;stroke-linecap:butt;stroke-linejoin:miter;fill:#9c9ede;stroke-miterlimit:10"/><path d="M53.74 4.91H81.3v98.18H53.74z" style="stroke-width:.21;stroke:none;stroke-linecap:butt;stroke-linejoin:miter;fill:#7375b5;stroke-miterlimit:10"/><path d="M81.3 4.91h27.56v98.18H81.3z" style="stroke-width:.21;stroke:none;stroke-linecap:butt;stroke-linejoin:miter;fill:#4a5584;stroke-miterlimit:10"/><path d="M108.86 4.91h27.56v98.18h-27.56z" style="stroke-width:.21;stroke:none;stroke-linecap:butt;stroke-linejoin:miter;fill:#cedb9c;stroke-miterlimit:10"/><path d="M136.42 4.91h27.56v98.18h-27.56z" style="stroke-width:.21;stroke:none;stroke-linecap:butt;stroke-linejoin:miter;fill:#b5cf6b;stroke-miterlimit:10"/><path d="M163.98 4.91h27.56v98.18h-27.56z" style="stroke-width:.21;stroke:none;stroke-linecap:butt;stroke-linejoin:miter;fill:#8ca252;stroke-miterlimit:10"/><path d="M191.54 4.91h27.56v98.18h-27.56z" style="stroke-width:.21;stroke:none;stroke-linecap:butt;stroke-linejoin:miter;fill:#637939;stroke-miterlimit:10"/><path d="M219.1 4.91h27.56v98.18H219.1z" style="stroke-width:.21;stroke:none;stroke-linecap:butt;stroke-linejoin:miter;fill:#e7cb94;stroke-miterlimit:10"/><path d="M246.66 4.91h27.56v98.18h-27.56z" style="stroke-width:.21;stroke:none;stroke-linecap:butt;stroke-linejoin:miter;fill:#e7ba52;stroke-miterlimit:10"/><path d="M274.22 4.91h27.56v98.18h-27.56z" style="stroke-width:.21;stroke:none;stroke-linecap:butt;stroke-linejoin:miter;fill:#bd9e39;stroke-miterlimit:10"/><path d="M301.78 4.91h27.56v98.18h-27.56z" style="stroke-width:.21;stroke:none;stroke-linecap:butt;stroke-linejoin:miter;fill:#8c6d31;stroke-miterlimit:10"/><path d="M329.34 4.91h27.56v98.18h-27.56z" style="stroke-width:.21;stroke:none;stroke-linecap:butt;stroke-linejoin:miter;fill:#e7969c;stroke-miterlimit:10"/><path d="M356.9 4.91h27.56v98.18H356.9z" style="stroke-width:.21;stroke:none;stroke-linecap:butt;stroke-linejoin:miter;fill:#d6616b;stroke-miterlimit:10"/><path d="M384.46 4.91h27.56v98.18h-27.56z" style="stroke-width:.21;stroke:none;stroke-linecap:butt;stroke-linejoin:miter;fill:#ad494a;stroke-miterlimit:10"/><path d="M412.02 4.91h27.56v98.18h-27.56z" style="stroke-width:.21;stroke:none;stroke-linecap:butt;stroke-linejoin:miter;fill:#843c39;stroke-miterlimit:10"/><path d="M439.58 4.91h27.56v98.18h-27.56z" style="stroke-width:.21;stroke:none;stroke-linecap:butt;stroke-linejoin:miter;fill:#de9ed6;stroke-miterlimit:10"/><path d="M467.14 4.91h27.56v98.18h-27.56z" style="stroke-width:.21;stroke:none;stroke-linecap:butt;stroke-linejoin:miter;fill:#ce6dbd;stroke-miterlimit:10"/><path d="M494.7 4.91h27.56v98.18H494.7z" style="stroke-width:.21;stroke:none;stroke-linecap:butt;stroke-linejoin:miter;fill:#a55194;stroke-miterlimit:10"/><path d="M522.26 4.91h27.56v98.18h-27.56z" style="stroke-width:.21;stroke:none;stroke-linecap:butt;stroke-linejoin:miter;fill:#7b4173;stroke-miterlimit:10"/></g></svg>