<svg xmlns="http://www.w3.org/2000/svg" width="768" height="144" class="svglite" viewBox="0 0 576 108"><defs><style></style></defs><rect width="100%" height="100%" style="stroke:none;fill:none;stroke-linecap:round;stroke-linejoin:round;stroke-miterlimit:10"/><defs><clipPath id="cpMC4wMHw1NzYuMDB8MC4wMHwxMDguMDA="><path d="M0 0h576v108H0z" style="fill:none;stroke:#000;stroke-linecap:round;stroke-linejoin:round;stroke-miterlimit:10"/></clipPath></defs><g clip-path="url(#cpMC4wMHw1NzYuMDB8MC4wMHwxMDguMDA=)"><path d="M26.18 4.91h32.73v98.18H26.18z" style="stroke-width:.21;stroke:none;stroke-linecap:butt;stroke-linejoin:miter;fill:#000;stroke-miterlimit:10"/><path d="M58.91 4.91h32.73v98.18H58.91z" style="stroke-width:.21;stroke:none;stroke-linecap:butt;stroke-linejoin:miter;fill:#575757;stroke-miterlimit:10"/><path d="M91.64 4.91h32.73v98.18H91.64z" style="stroke-width:.21;stroke:none;stroke-linecap:butt;stroke-linejoin:miter;fill:#ad2323;stroke-miterlimit:10"/><path d="M124.36 4.91h32.73v98.18h-32.73z" style="stroke-width:.21;stroke:none;stroke-linecap:butt;stroke-linejoin:miter;fill:#2a4bd7;stroke-miterlimit:10"/><path d="M157.09 4.91h32.73v98.18h-32.73z" style="stroke-width:.21;stroke:none;stroke-linecap:butt;stroke-linejoin:miter;fill:#1d6914;stroke-miterlimit:10"/><path d="M189.82 4.91h32.73v98.18h-32.73z" style="stroke-width:.21;stroke:none;stroke-linecap:butt;stroke-linejoin:miter;fill:#814a19;stroke-miterlimit:10"/><path d="M222.55 4.91h32.73v98.18h-32.73z" style="stroke-width:.21;stroke:none;stroke-linecap:butt;stroke-linejoin:miter;fill:#8126c0;stroke-miterlimit:10"/><path d="M255.27 4.91H288v98.18h-32.73z" style="stroke-width:.21;stroke:none;stroke-linecap:butt;stroke-linejoin:miter;fill:#a0a0a0;stroke-miterlimit:10"/><path d="M288 4.91h32.73v98.18H288z" style="stroke-width:.21;stroke:none;stroke-linecap:butt;stroke-linejoin:miter;fill:#81c57a;stroke-miterlimit:10"/><path d="M320.73 4.91h32.73v98.18h-32.73z" style="stroke-width:.21;stroke:none;stroke-linecap:butt;stroke-linejoin:miter;fill:#9dafff;stroke-miterlimit:10"/><path d="M353.45 4.91h32.73v98.18h-32.73z" style="stroke-width:.21;stroke:none;stroke-linecap:butt;stroke-linejoin:miter;fill:#29d0d0;stroke-miterlimit:10"/><path d="M386.18 4.91h32.73v98.18h-32.73z" style="stroke-width:.21;stroke:none;stroke-linecap:butt;stroke-linejoin:miter;fill:#ff9233;stroke-miterlimit:10"/><path d="M418.91 4.91h32.73v98.18h-32.73z" style="stroke-width:.21;stroke:none;stroke-linecap:butt;stroke-linejoin:miter;fill:#fe3;stroke-miterlimit:10"/><path d="M451.64 4.91h32.73v98.18h-32.73z" style="stroke-width:.21;stroke:none;stroke-linecap:butt;stroke-linejoin:miter;fill:#e9debb;stroke-miterlimit:10"/><path d="M484.36 4.91h32.73v98.18h-32.73z" style="stroke-width:.21;stroke:none;stroke-linecap:butt;stroke-linejoin:miter;fill:#ffcdf3;stroke-miterlimit:10"/><path d="M517.09 4.91h32.73v98.18h-32.73z" style="stroke-width:.21;stroke:none;stroke-linecap:butt;stroke-linejoin:miter;fill:#f2f3f4;stroke-miterlimit:10"/></g></svg>