<svg xmlns="http://www.w3.org/2000/svg" width="768" height="144" class="svglite" viewBox="0 0 576 108"><defs><style></style></defs><rect width="100%" height="100%" style="stroke:none;fill:none;stroke-linecap:round;stroke-linejoin:round;stroke-miterlimit:10"/><defs><clipPath id="cpMC4wMHw1NzYuMDB8MC4wMHwxMDguMDA="><path d="M0 0h576v108H0z" style="fill:none;stroke:#000;stroke-linecap:round;stroke-linejoin:round;stroke-miterlimit:10"/></clipPath></defs><g clip-path="url(#cpMC4wMHw1NzYuMDB8MC4wMHwxMDguMDA=)"><path d="M26.18 4.91h40.28v98.18H26.18z" style="stroke-width:.21;stroke:none;stroke-linecap:butt;stroke-linejoin:miter;fill:#987810;stroke-miterlimit:10"/><path d="M66.46 4.91h40.28v98.18H66.46z" style="stroke-width:.21;stroke:none;stroke-linecap:butt;stroke-linejoin:miter;fill:#f0e858;stroke-miterlimit:10"/><path d="M106.74 4.91h40.28v98.18h-40.28z" style="stroke-width:.21;stroke:none;stroke-linecap:butt;stroke-linejoin:miter;fill:#583000;stroke-miterlimit:10"/><path d="M147.02 4.91h40.28v98.18h-40.28z" style="stroke-width:.21;stroke:none;stroke-linecap:butt;stroke-linejoin:miter;fill:#d8c020;stroke-miterlimit:10"/><path d="M187.3 4.91h40.28v98.18H187.3z" style="stroke-width:.21;stroke:none;stroke-linecap:butt;stroke-linejoin:miter;fill:#c8b048;stroke-miterlimit:10"/><path d="M227.58 4.91h40.28v98.18h-40.28z" style="stroke-width:.21;stroke:none;stroke-linecap:butt;stroke-linejoin:miter;fill:#c8c8b8;stroke-miterlimit:10"/><path d="M267.86 4.91h40.28v98.18h-40.28z" style="stroke-width:.21;stroke:none;stroke-linecap:butt;stroke-linejoin:miter;fill:#b8a000;stroke-miterlimit:10"/><path d="M308.14 4.91h40.28v98.18h-40.28z" style="stroke-width:.21;stroke:none;stroke-linecap:butt;stroke-linejoin:miter;fill:#e8e8d8;stroke-miterlimit:10"/><path d="M348.42 4.91h40.28v98.18h-40.28z" style="stroke-width:.21;stroke:none;stroke-linecap:butt;stroke-linejoin:miter;fill:#484848;stroke-miterlimit:10"/><path d="M388.7 4.91h40.28v98.18H388.7z" style="stroke-width:.21;stroke:none;stroke-linecap:butt;stroke-linejoin:miter;fill:#785800;stroke-miterlimit:10"/><path d="M428.98 4.91h40.28v98.18h-40.28z" style="stroke-width:.21;stroke:none;stroke-linecap:butt;stroke-linejoin:miter;fill:#888;stroke-miterlimit:10"/><path d="M469.26 4.91h40.28v98.18h-40.28z" style="stroke-width:.21;stroke:none;stroke-linecap:butt;stroke-linejoin:miter;fill:#806000;stroke-miterlimit:10"/><path d="M509.54 4.91h40.28v98.18h-40.28z" style="stroke-width:.21;stroke:none;stroke-linecap:butt;stroke-linejoin:miter;fill:#f8f8f8;stroke-miterlimit:10"/></g></svg>