<svg xmlns="http://www.w3.org/2000/svg" width="768" height="144" class="svglite" viewBox="0 0 576 108"><defs><style></style></defs><rect width="100%" height="100%" style="stroke:none;fill:none;stroke-linecap:round;stroke-linejoin:round;stroke-miterlimit:10"/><defs><clipPath id="cpMC4wMHw1NzYuMDB8MC4wMHwxMDguMDA="><path d="M0 0h576v108H0z" style="fill:none;stroke:#000;stroke-linecap:round;stroke-linejoin:round;stroke-miterlimit:10"/></clipPath></defs><g clip-path="url(#cpMC4wMHw1NzYuMDB8MC4wMHwxMDguMDA=)"><path d="M26.18 4.91h34.91v98.18H26.18z" style="stroke-width:.21;stroke:none;stroke-linecap:butt;stroke-linejoin:miter;fill:#ff0;stroke-miterlimit:10"/><path d="M61.09 4.91H96v98.18H61.09z" style="stroke-width:.21;stroke:none;stroke-linecap:butt;stroke-linejoin:miter;fill:#0f0;stroke-miterlimit:10"/><path d="M96 4.91h34.91v98.18H96z" style="stroke-width:.21;stroke:none;stroke-linecap:butt;stroke-linejoin:miter;fill:#0080ff;stroke-miterlimit:10"/><path d="M130.91 4.91h34.91v98.18h-34.91z" style="stroke-width:.21;stroke:none;stroke-linecap:butt;stroke-linejoin:miter;fill:#f0f;stroke-miterlimit:10"/><path d="M165.82 4.91h34.91v98.18h-34.91z" style="stroke-width:.21;stroke:none;stroke-linecap:butt;stroke-linejoin:miter;fill:#ff7f00;stroke-miterlimit:10"/><path d="M200.73 4.91h34.91v98.18h-34.91z" style="stroke-width:.21;stroke:none;stroke-linecap:butt;stroke-linejoin:miter;fill:red;stroke-miterlimit:10"/><path d="M235.64 4.91h34.91v98.18h-34.91z" style="stroke-width:.21;stroke:none;stroke-linecap:butt;stroke-linejoin:miter;fill:#add8e6;stroke-miterlimit:10"/><path d="M270.55 4.91h34.91v98.18h-34.91z" style="stroke-width:.21;stroke:none;stroke-linecap:butt;stroke-linejoin:miter;fill:#ffe474;stroke-miterlimit:10"/><path d="M305.45 4.91h34.91v98.18h-34.91z" style="stroke-width:.21;stroke:none;stroke-linecap:butt;stroke-linejoin:miter;fill:#00ff80;stroke-miterlimit:10"/><path d="M340.36 4.91h34.91v98.18h-34.91z" style="stroke-width:.21;stroke:none;stroke-linecap:butt;stroke-linejoin:miter;fill:#c0dcc0;stroke-miterlimit:10"/><path d="M375.27 4.91h34.91v98.18h-34.91z" style="stroke-width:.21;stroke:none;stroke-linecap:butt;stroke-linejoin:miter;fill:#ff4500;stroke-miterlimit:10"/><path d="M410.18 4.91h34.91v98.18h-34.91z" style="stroke-width:.21;stroke:none;stroke-linecap:butt;stroke-linejoin:miter;fill:#00f;stroke-miterlimit:10"/><path d="M445.09 4.91H480v98.18h-34.91z" style="stroke-width:.21;stroke:none;stroke-linecap:butt;stroke-linejoin:miter;fill:#ff0080;stroke-miterlimit:10"/><path d="M480 4.91h34.91v98.18H480z" style="stroke-width:.21;stroke:none;stroke-linecap:butt;stroke-linejoin:miter;fill:#6e8e84;stroke-miterlimit:10"/><path d="M514.91 4.91h34.91v98.18h-34.91z" style="stroke-width:.21;stroke:none;stroke-linecap:butt;stroke-linejoin:miter;fill:sienna;stroke-miterlimit:10"/></g></svg>