<svg xmlns="http://www.w3.org/2000/svg" width="768" height="144" class="svglite" viewBox="0 0 576 108"><defs><style></style></defs><rect width="100%" height="100%" style="stroke:none;fill:none;stroke-linecap:round;stroke-linejoin:round;stroke-miterlimit:10"/><defs><clipPath id="cpMC4wMHw1NzYuMDB8MC4wMHwxMDguMDA="><path d="M0 0h576v108H0z" style="fill:none;stroke:#000;stroke-linecap:round;stroke-linejoin:round;stroke-miterlimit:10"/></clipPath></defs><g clip-path="url(#cpMC4wMHw1NzYuMDB8MC4wMHwxMDguMDA=)"><path d="M26.18 4.91h37.4v98.18h-37.4z" style="stroke-width:.21;stroke:none;stroke-linecap:butt;stroke-linejoin:miter;fill:#98e050;stroke-miterlimit:10"/><path d="M63.58 4.91h37.4v98.18h-37.4z" style="stroke-width:.21;stroke:none;stroke-linecap:butt;stroke-linejoin:miter;fill:#f83858;stroke-miterlimit:10"/><path d="M100.99 4.91h37.4v98.18h-37.4z" style="stroke-width:.21;stroke:none;stroke-linecap:butt;stroke-linejoin:miter;fill:#68b830;stroke-miterlimit:10"/><path d="M138.39 4.91h37.4v98.18h-37.4z" style="stroke-width:.21;stroke:none;stroke-linecap:butt;stroke-linejoin:miter;fill:#c82038;stroke-miterlimit:10"/><path d="M175.79 4.91h37.4v98.18h-37.4z" style="stroke-width:.21;stroke:none;stroke-linecap:butt;stroke-linejoin:miter;fill:#208810;stroke-miterlimit:10"/><path d="M213.19 4.91h37.4v98.18h-37.4z" style="stroke-width:.21;stroke:none;stroke-linecap:butt;stroke-linejoin:miter;fill:#f0a098;stroke-miterlimit:10"/><path d="M250.6 4.91H288v98.18h-37.4z" style="stroke-width:.21;stroke:none;stroke-linecap:butt;stroke-linejoin:miter;fill:#f8f8f8;stroke-miterlimit:10"/><path d="M288 4.91h37.4v98.18H288z" style="stroke-width:.21;stroke:none;stroke-linecap:butt;stroke-linejoin:miter;fill:#f8d820;stroke-miterlimit:10"/><path d="M325.4 4.91h37.4v98.18h-37.4z" style="stroke-width:.21;stroke:none;stroke-linecap:butt;stroke-linejoin:miter;fill:#781038;stroke-miterlimit:10"/><path d="M362.81 4.91h37.4v98.18h-37.4z" style="stroke-width:.21;stroke:none;stroke-linecap:butt;stroke-linejoin:miter;fill:#604800;stroke-miterlimit:10"/><path d="M400.21 4.91h37.4v98.18h-37.4z" style="stroke-width:.21;stroke:none;stroke-linecap:butt;stroke-linejoin:miter;fill:#b8f878;stroke-miterlimit:10"/><path d="M437.61 4.91h37.4v98.18h-37.4z" style="stroke-width:.21;stroke:none;stroke-linecap:butt;stroke-linejoin:miter;fill:#686868;stroke-miterlimit:10"/><path d="M475.01 4.91h37.4v98.18h-37.4z" style="stroke-width:.21;stroke:none;stroke-linecap:butt;stroke-linejoin:miter;fill:#e0a800;stroke-miterlimit:10"/><path d="M512.42 4.91h37.4v98.18h-37.4z" style="stroke-width:.21;stroke:none;stroke-linecap:butt;stroke-linejoin:miter;fill:#c8c8c8;stroke-miterlimit:10"/></g></svg>