<svg xmlns="http://www.w3.org/2000/svg" width="768" height="144" class="svglite" viewBox="0 0 576 108"><defs><style></style></defs><rect width="100%" height="100%" style="stroke:none;fill:none;stroke-linecap:round;stroke-linejoin:round;stroke-miterlimit:10"/><defs><clipPath id="cpMC4wMHw1NzYuMDB8MC4wMHwxMDguMDA="><path d="M0 0h576v108H0z" style="fill:none;stroke:#000;stroke-linecap:round;stroke-linejoin:round;stroke-miterlimit:10"/></clipPath></defs><g clip-path="url(#cpMC4wMHw1NzYuMDB8MC4wMHwxMDguMDA=)"><path d="M26.18 4.91h40.28v98.18H26.18z" style="stroke-width:.21;stroke:none;stroke-linecap:butt;stroke-linejoin:miter;fill:#60a060;stroke-miterlimit:10"/><path d="M66.46 4.91h40.28v98.18H66.46z" style="stroke-width:.21;stroke:none;stroke-linecap:butt;stroke-linejoin:miter;fill:#a8d0b0;stroke-miterlimit:10"/><path d="M106.74 4.91h40.28v98.18h-40.28z" style="stroke-width:.21;stroke:none;stroke-linecap:butt;stroke-linejoin:miter;fill:#305840;stroke-miterlimit:10"/><path d="M147.02 4.91h40.28v98.18h-40.28z" style="stroke-width:.21;stroke:none;stroke-linecap:butt;stroke-linejoin:miter;fill:#c8f0d0;stroke-miterlimit:10"/><path d="M187.3 4.91h40.28v98.18H187.3z" style="stroke-width:.21;stroke:none;stroke-linecap:butt;stroke-linejoin:miter;fill:#c0c848;stroke-miterlimit:10"/><path d="M227.58 4.91h40.28v98.18h-40.28z" style="stroke-width:.21;stroke:none;stroke-linecap:butt;stroke-linejoin:miter;fill:#706000;stroke-miterlimit:10"/><path d="M267.86 4.91h40.28v98.18h-40.28z" style="stroke-width:.21;stroke:none;stroke-linecap:butt;stroke-linejoin:miter;fill:#f8f8f8;stroke-miterlimit:10"/><path d="M308.14 4.91h40.28v98.18h-40.28z" style="stroke-width:.21;stroke:none;stroke-linecap:butt;stroke-linejoin:miter;fill:#f83838;stroke-miterlimit:10"/><path d="M348.42 4.91h40.28v98.18h-40.28z" style="stroke-width:.21;stroke:none;stroke-linecap:butt;stroke-linejoin:miter;fill:#e8f070;stroke-miterlimit:10"/><path d="M388.7 4.91h40.28v98.18H388.7z" style="stroke-width:.21;stroke:none;stroke-linecap:butt;stroke-linejoin:miter;fill:#a0a828;stroke-miterlimit:10"/><path d="M428.98 4.91h40.28v98.18h-40.28z" style="stroke-width:.21;stroke:none;stroke-linecap:butt;stroke-linejoin:miter;fill:#505050;stroke-miterlimit:10"/><path d="M469.26 4.91h40.28v98.18h-40.28z" style="stroke-width:.21;stroke:none;stroke-linecap:butt;stroke-linejoin:miter;fill:#980000;stroke-miterlimit:10"/><path d="M509.54 4.91h40.28v98.18h-40.28z" style="stroke-width:.21;stroke:none;stroke-linecap:butt;stroke-linejoin:miter;fill:#d0d0d0;stroke-miterlimit:10"/></g></svg>