<svg xmlns="http://www.w3.org/2000/svg" width="768" height="144" class="svglite" viewBox="0 0 576 108"><defs><style></style></defs><rect width="100%" height="100%" style="stroke:none;fill:none;stroke-linecap:round;stroke-linejoin:round;stroke-miterlimit:10"/><defs><clipPath id="cpMC4wMHw1NzYuMDB8MC4wMHwxMDguMDA="><path d="M0 0h576v108H0z" style="fill:none;stroke:#000;stroke-linecap:round;stroke-linejoin:round;stroke-miterlimit:10"/></clipPath></defs><g clip-path="url(#cpMC4wMHw1NzYuMDB8MC4wMHwxMDguMDA=)"><path d="M26.18 4.91h43.64v98.18H26.18z" style="stroke-width:.21;stroke:none;stroke-linecap:butt;stroke-linejoin:miter;fill:#506868;stroke-miterlimit:10"/><path d="M69.82 4.91h43.64v98.18H69.82z" style="stroke-width:.21;stroke:none;stroke-linecap:butt;stroke-linejoin:miter;fill:#385050;stroke-miterlimit:10"/><path d="M113.45 4.91h43.64v98.18h-43.64z" style="stroke-width:.21;stroke:none;stroke-linecap:butt;stroke-linejoin:miter;fill:#284040;stroke-miterlimit:10"/><path d="M157.09 4.91h43.64v98.18h-43.64z" style="stroke-width:.21;stroke:none;stroke-linecap:butt;stroke-linejoin:miter;fill:#88a0a0;stroke-miterlimit:10"/><path d="M200.73 4.91h43.64v98.18h-43.64z" style="stroke-width:.21;stroke:none;stroke-linecap:butt;stroke-linejoin:miter;fill:#987820;stroke-miterlimit:10"/><path d="M244.36 4.91H288v98.18h-43.64z" style="stroke-width:.21;stroke:none;stroke-linecap:butt;stroke-linejoin:miter;fill:#f8f850;stroke-miterlimit:10"/><path d="M288 4.91h43.64v98.18H288z" style="stroke-width:.21;stroke:none;stroke-linecap:butt;stroke-linejoin:miter;fill:#d0b028;stroke-miterlimit:10"/><path d="M331.64 4.91h43.64v98.18h-43.64z" style="stroke-width:.21;stroke:none;stroke-linecap:butt;stroke-linejoin:miter;fill:#684810;stroke-miterlimit:10"/><path d="M375.27 4.91h43.64v98.18h-43.64z" style="stroke-width:.21;stroke:none;stroke-linecap:butt;stroke-linejoin:miter;fill:#f8f8f8;stroke-miterlimit:10"/><path d="M418.91 4.91h43.64v98.18h-43.64z" style="stroke-width:.21;stroke:none;stroke-linecap:butt;stroke-linejoin:miter;fill:#e83840;stroke-miterlimit:10"/><path d="M462.55 4.91h43.64v98.18h-43.64z" style="stroke-width:.21;stroke:none;stroke-linecap:butt;stroke-linejoin:miter;fill:#a81020;stroke-miterlimit:10"/><path d="M506.18 4.91h43.64v98.18h-43.64z" style="stroke-width:.21;stroke:none;stroke-linecap:butt;stroke-linejoin:miter;fill:#f8a888;stroke-miterlimit:10"/></g></svg>