<svg xmlns="http://www.w3.org/2000/svg" width="768" height="144" class="svglite" viewBox="0 0 576 108"><defs><style></style></defs><rect width="100%" height="100%" style="stroke:none;fill:none;stroke-linecap:round;stroke-linejoin:round;stroke-miterlimit:10"/><defs><clipPath id="cpMC4wMHw1NzYuMDB8MC4wMHwxMDguMDA="><path d="M0 0h576v108H0z" style="fill:none;stroke:#000;stroke-linecap:round;stroke-linejoin:round;stroke-miterlimit:10"/></clipPath></defs><g clip-path="url(#cpMC4wMHw1NzYuMDB8MC4wMHwxMDguMDA=)"><path d="M26.18 4.91h29.09v98.18H26.18z" style="stroke-width:.21;stroke:none;stroke-linecap:butt;stroke-linejoin:miter;fill:#066;stroke-miterlimit:10"/><path d="M55.27 4.91h29.09v98.18H55.27z" style="stroke-width:.21;stroke:none;stroke-linecap:butt;stroke-linejoin:miter;fill:#099;stroke-miterlimit:10"/><path d="M84.36 4.91h29.09v98.18H84.36z" style="stroke-width:.21;stroke:none;stroke-linecap:butt;stroke-linejoin:miter;fill:#0cc;stroke-miterlimit:10"/><path d="M113.45 4.91h29.09v98.18h-29.09z" style="stroke-width:.21;stroke:none;stroke-linecap:butt;stroke-linejoin:miter;fill:#0ff;stroke-miterlimit:10"/><path d="M142.55 4.91h29.09v98.18h-29.09z" style="stroke-width:.21;stroke:none;stroke-linecap:butt;stroke-linejoin:miter;fill:#3ff;stroke-miterlimit:10"/><path d="M171.64 4.91h29.09v98.18h-29.09z" style="stroke-width:.21;stroke:none;stroke-linecap:butt;stroke-linejoin:miter;fill:#65ffff;stroke-miterlimit:10"/><path d="M200.73 4.91h29.09v98.18h-29.09z" style="stroke-width:.21;stroke:none;stroke-linecap:butt;stroke-linejoin:miter;fill:#9ff;stroke-miterlimit:10"/><path d="M229.82 4.91h29.09v98.18h-29.09z" style="stroke-width:.21;stroke:none;stroke-linecap:butt;stroke-linejoin:miter;fill:#b2ffff;stroke-miterlimit:10"/><path d="M258.91 4.91H288v98.18h-29.09z" style="stroke-width:.21;stroke:none;stroke-linecap:butt;stroke-linejoin:miter;fill:#cbffff;stroke-miterlimit:10"/><path d="M288 4.91h29.09v98.18H288z" style="stroke-width:.21;stroke:none;stroke-linecap:butt;stroke-linejoin:miter;fill:#e5ffff;stroke-miterlimit:10"/><path d="M317.09 4.91h29.09v98.18h-29.09z" style="stroke-width:.21;stroke:none;stroke-linecap:butt;stroke-linejoin:miter;fill:#ffe5cb;stroke-miterlimit:10"/><path d="M346.18 4.91h29.09v98.18h-29.09z" style="stroke-width:.21;stroke:none;stroke-linecap:butt;stroke-linejoin:miter;fill:#ffca99;stroke-miterlimit:10"/><path d="M375.27 4.91h29.09v98.18h-29.09z" style="stroke-width:.21;stroke:none;stroke-linecap:butt;stroke-linejoin:miter;fill:#ffad65;stroke-miterlimit:10"/><path d="M404.36 4.91h29.09v98.18h-29.09z" style="stroke-width:.21;stroke:none;stroke-linecap:butt;stroke-linejoin:miter;fill:#ff8e33;stroke-miterlimit:10"/><path d="M433.45 4.91h29.09v98.18h-29.09z" style="stroke-width:.21;stroke:none;stroke-linecap:butt;stroke-linejoin:miter;fill:#ff6e00;stroke-miterlimit:10"/><path d="M462.55 4.91h29.09v98.18h-29.09z" style="stroke-width:.21;stroke:none;stroke-linecap:butt;stroke-linejoin:miter;fill:#c50;stroke-miterlimit:10"/><path d="M491.64 4.91h29.09v98.18h-29.09z" style="stroke-width:.21;stroke:none;stroke-linecap:butt;stroke-linejoin:miter;fill:#993d00;stroke-miterlimit:10"/><path d="M520.73 4.91h29.09v98.18h-29.09z" style="stroke-width:.21;stroke:none;stroke-linecap:butt;stroke-linejoin:miter;fill:#662700;stroke-miterlimit:10"/></g></svg>