<svg xmlns="http://www.w3.org/2000/svg" width="768" height="144" class="svglite" viewBox="0 0 576 108"><defs><style></style></defs><rect width="100%" height="100%" style="stroke:none;fill:none;stroke-linecap:round;stroke-linejoin:round;stroke-miterlimit:10"/><defs><clipPath id="cpMC4wMHw1NzYuMDB8MC4wMHwxMDguMDA="><path d="M0 0h576v108H0z" style="fill:none;stroke:#000;stroke-linecap:round;stroke-linejoin:round;stroke-miterlimit:10"/></clipPath></defs><g clip-path="url(#cpMC4wMHw1NzYuMDB8MC4wMHwxMDguMDA=)"><path d="M26.18 4.91h26.18v98.18H26.18z" style="stroke-width:.21;stroke:none;stroke-linecap:butt;stroke-linejoin:miter;fill:#000;stroke-miterlimit:10"/><path d="M52.36 4.91h26.18v98.18H52.36z" style="stroke-width:.21;stroke:none;stroke-linecap:butt;stroke-linejoin:miter;fill:#000002;stroke-miterlimit:10"/><path d="M78.55 4.91h26.18v98.18H78.55z" style="stroke-width:.21;stroke:none;stroke-linecap:butt;stroke-linejoin:miter;fill:#000100;stroke-miterlimit:10"/><path d="M104.73 4.91h26.18v98.18h-26.18z" style="stroke-width:.21;stroke:none;stroke-linecap:butt;stroke-linejoin:miter;fill:#010000;stroke-miterlimit:10"/><path d="M130.91 4.91h26.18v98.18h-26.18z" style="stroke-width:.21;stroke:none;stroke-linecap:butt;stroke-linejoin:miter;fill:#1b90c6;stroke-miterlimit:10"/><path d="M157.09 4.91h26.18v98.18h-26.18z" style="stroke-width:.21;stroke:none;stroke-linecap:butt;stroke-linejoin:miter;fill:#1a8fc5;stroke-miterlimit:10"/><path d="M183.27 4.91h26.18v98.18h-26.18z" style="stroke-width:.21;stroke:none;stroke-linecap:butt;stroke-linejoin:miter;fill:#1d8fc3;stroke-miterlimit:10"/><path d="M209.45 4.91h26.18v98.18h-26.18z" style="stroke-width:.21;stroke:none;stroke-linecap:butt;stroke-linejoin:miter;fill:#1a8fc4;stroke-miterlimit:10"/><path d="M235.64 4.91h26.18v98.18h-26.18z" style="stroke-width:.21;stroke:none;stroke-linecap:butt;stroke-linejoin:miter;fill:#1b8ec4;stroke-miterlimit:10"/><path d="M261.82 4.91H288v98.18h-26.18z" style="stroke-width:.21;stroke:none;stroke-linecap:butt;stroke-linejoin:miter;fill:#ee4a91;stroke-miterlimit:10"/><path d="M288 4.91h26.18v98.18H288z" style="stroke-width:.21;stroke:none;stroke-linecap:butt;stroke-linejoin:miter;fill:#ec4b8f;stroke-miterlimit:10"/><path d="M314.18 4.91h26.18v98.18h-26.18z" style="stroke-width:.21;stroke:none;stroke-linecap:butt;stroke-linejoin:miter;fill:#ef4991;stroke-miterlimit:10"/><path d="M340.36 4.91h26.18v98.18h-26.18z" style="stroke-width:.21;stroke:none;stroke-linecap:butt;stroke-linejoin:miter;fill:#ec4a93;stroke-miterlimit:10"/><path d="M366.55 4.91h26.18v98.18h-26.18z" style="stroke-width:.21;stroke:none;stroke-linecap:butt;stroke-linejoin:miter;fill:#ee4a8f;stroke-miterlimit:10"/><path d="M392.73 4.91h26.18v98.18h-26.18z" style="stroke-width:.21;stroke:none;stroke-linecap:butt;stroke-linejoin:miter;fill:#f0e821;stroke-miterlimit:10"/><path d="M418.91 4.91h26.18v98.18h-26.18z" style="stroke-width:.21;stroke:none;stroke-linecap:butt;stroke-linejoin:miter;fill:#f0e71c;stroke-miterlimit:10"/><path d="M445.09 4.91h26.18v98.18h-26.18z" style="stroke-width:.21;stroke:none;stroke-linecap:butt;stroke-linejoin:miter;fill:#efea1f;stroke-miterlimit:10"/><path d="M471.27 4.91h26.18v98.18h-26.18z" style="stroke-width:.21;stroke:none;stroke-linecap:butt;stroke-linejoin:miter;fill:#f0e720;stroke-miterlimit:10"/><path d="M497.45 4.91h26.18v98.18h-26.18z" style="stroke-width:.21;stroke:none;stroke-linecap:butt;stroke-linejoin:miter;fill:#f0e91f;stroke-miterlimit:10"/><path d="M523.64 4.91h26.18v98.18h-26.18z" style="stroke-width:.21;stroke:none;stroke-linecap:butt;stroke-linejoin:miter;fill:#e8e6f3;stroke-miterlimit:10"/></g></svg>