<svg xmlns="http://www.w3.org/2000/svg" width="768" height="144" class="svglite" viewBox="0 0 576 108"><defs><style></style></defs><rect width="100%" height="100%" style="stroke:none;fill:none;stroke-linecap:round;stroke-linejoin:round;stroke-miterlimit:10"/><defs><clipPath id="cpMC4wMHw1NzYuMDB8MC4wMHwxMDguMDA="><path d="M0 0h576v108H0z" style="fill:none;stroke:#000;stroke-linecap:round;stroke-linejoin:round;stroke-miterlimit:10"/></clipPath></defs><g clip-path="url(#cpMC4wMHw1NzYuMDB8MC4wMHwxMDguMDA=)"><path d="M26.18 4.91h37.4v98.18h-37.4z" style="stroke-width:.21;stroke:none;stroke-linecap:butt;stroke-linejoin:miter;fill:#90e040;stroke-miterlimit:10"/><path d="M63.58 4.91h37.4v98.18h-37.4z" style="stroke-width:.21;stroke:none;stroke-linecap:butt;stroke-linejoin:miter;fill:#60b820;stroke-miterlimit:10"/><path d="M100.99 4.91h37.4v98.18h-37.4z" style="stroke-width:.21;stroke:none;stroke-linecap:butt;stroke-linejoin:miter;fill:#907830;stroke-miterlimit:10"/><path d="M138.39 4.91h37.4v98.18h-37.4z" style="stroke-width:.21;stroke:none;stroke-linecap:butt;stroke-linejoin:miter;fill:#b0a030;stroke-miterlimit:10"/><path d="M175.79 4.91h37.4v98.18h-37.4z" style="stroke-width:.21;stroke:none;stroke-linecap:butt;stroke-linejoin:miter;fill:#c8f870;stroke-miterlimit:10"/><path d="M213.19 4.91h37.4v98.18h-37.4z" style="stroke-width:.21;stroke:none;stroke-linecap:butt;stroke-linejoin:miter;fill:#305010;stroke-miterlimit:10"/><path d="M250.6 4.91H288v98.18h-37.4z" style="stroke-width:.21;stroke:none;stroke-linecap:butt;stroke-linejoin:miter;fill:#507828;stroke-miterlimit:10"/><path d="M288 4.91h37.4v98.18H288z" style="stroke-width:.21;stroke:none;stroke-linecap:butt;stroke-linejoin:miter;fill:#f8f858;stroke-miterlimit:10"/><path d="M325.4 4.91h37.4v98.18h-37.4z" style="stroke-width:.21;stroke:none;stroke-linecap:butt;stroke-linejoin:miter;fill:#787878;stroke-miterlimit:10"/><path d="M362.81 4.91h37.4v98.18h-37.4z" style="stroke-width:.21;stroke:none;stroke-linecap:butt;stroke-linejoin:miter;fill:#903000;stroke-miterlimit:10"/><path d="M400.21 4.91h37.4v98.18h-37.4z" style="stroke-width:.21;stroke:none;stroke-linecap:butt;stroke-linejoin:miter;fill:#f8f8f8;stroke-miterlimit:10"/><path d="M437.61 4.91h37.4v98.18h-37.4z" style="stroke-width:.21;stroke:none;stroke-linecap:butt;stroke-linejoin:miter;fill:#b8b8b8;stroke-miterlimit:10"/><path d="M475.01 4.91h37.4v98.18h-37.4z" style="stroke-width:.21;stroke:none;stroke-linecap:butt;stroke-linejoin:miter;fill:#e83000;stroke-miterlimit:10"/><path d="M512.42 4.91h37.4v98.18h-37.4z" style="stroke-width:.21;stroke:none;stroke-linecap:butt;stroke-linejoin:miter;fill:#f89850;stroke-miterlimit:10"/></g></svg>