<svg xmlns="http://www.w3.org/2000/svg" width="768" height="144" class="svglite" viewBox="0 0 576 108"><defs><style></style></defs><rect width="100%" height="100%" style="stroke:none;fill:none;stroke-linecap:round;stroke-linejoin:round;stroke-miterlimit:10"/><defs><clipPath id="cpMC4wMHw1NzYuMDB8MC4wMHwxMDguMDA="><path d="M0 0h576v108H0z" style="fill:none;stroke:#000;stroke-linecap:round;stroke-linejoin:round;stroke-miterlimit:10"/></clipPath></defs><g clip-path="url(#cpMC4wMHw1NzYuMDB8MC4wMHwxMDguMDA=)"><path d="M26.18 4.91h30.8v98.18h-30.8z" style="stroke-width:.21;stroke:none;stroke-linecap:butt;stroke-linejoin:miter;fill:#000;stroke-miterlimit:10"/><path d="M56.98 4.91h30.8v98.18h-30.8z" style="stroke-width:.21;stroke:none;stroke-linecap:butt;stroke-linejoin:miter;fill:#2e0711;stroke-miterlimit:10"/><path d="M87.79 4.91h30.8v98.18h-30.8z" style="stroke-width:.21;stroke:none;stroke-linecap:butt;stroke-linejoin:miter;fill:#330813;stroke-miterlimit:10"/><path d="M118.59 4.91h30.8v98.18h-30.8z" style="stroke-width:.21;stroke:none;stroke-linecap:butt;stroke-linejoin:miter;fill:#570d21;stroke-miterlimit:10"/><path d="M149.39 4.91h30.8v98.18h-30.8z" style="stroke-width:.21;stroke:none;stroke-linecap:butt;stroke-linejoin:miter;fill:#610f25;stroke-miterlimit:10"/><path d="M180.19 4.91h30.8v98.18h-30.8z" style="stroke-width:.21;stroke:none;stroke-linecap:butt;stroke-linejoin:miter;fill:#781e31;stroke-miterlimit:10"/><path d="M210.99 4.91h30.8v98.18h-30.8z" style="stroke-width:.21;stroke:none;stroke-linecap:butt;stroke-linejoin:miter;fill:#862137;stroke-miterlimit:10"/><path d="M241.8 4.91h30.8v98.18h-30.8z" style="stroke-width:.21;stroke:none;stroke-linecap:butt;stroke-linejoin:miter;fill:#9f3043;stroke-miterlimit:10"/><path d="M272.6 4.91h30.8v98.18h-30.8z" style="stroke-width:.21;stroke:none;stroke-linecap:butt;stroke-linejoin:miter;fill:#b1364b;stroke-miterlimit:10"/><path d="M303.4 4.91h30.8v98.18h-30.8z" style="stroke-width:.21;stroke:none;stroke-linecap:butt;stroke-linejoin:miter;fill:#c65c66;stroke-miterlimit:10"/><path d="M334.2 4.91H365v98.18h-30.8z" style="stroke-width:.21;stroke:none;stroke-linecap:butt;stroke-linejoin:miter;fill:#dc6772;stroke-miterlimit:10"/><path d="M365.01 4.91h30.8v98.18h-30.8z" style="stroke-width:.21;stroke:none;stroke-linecap:butt;stroke-linejoin:miter;fill:#d16970;stroke-miterlimit:10"/><path d="M395.81 4.91h30.8v98.18h-30.8z" style="stroke-width:.21;stroke:none;stroke-linecap:butt;stroke-linejoin:miter;fill:#e9757d;stroke-miterlimit:10"/><path d="M426.61 4.91h30.8v98.18h-30.8z" style="stroke-width:.21;stroke:none;stroke-linecap:butt;stroke-linejoin:miter;fill:#d8cecf;stroke-miterlimit:10"/><path d="M457.41 4.91h30.8v98.18h-30.8z" style="stroke-width:.21;stroke:none;stroke-linecap:butt;stroke-linejoin:miter;fill:#f1e5e6;stroke-miterlimit:10"/><path d="M488.21 4.91h30.8v98.18h-30.8z" style="stroke-width:.21;stroke:none;stroke-linecap:butt;stroke-linejoin:miter;fill:#e5e5e5;stroke-miterlimit:10"/><path d="M519.02 4.91h30.8v98.18h-30.8z" style="stroke-width:.21;stroke:none;stroke-linecap:butt;stroke-linejoin:miter;fill:#fff;stroke-miterlimit:10"/></g></svg>