<svg xmlns="http://www.w3.org/2000/svg" width="768" height="144" class="svglite" viewBox="0 0 576 108"><defs><style></style></defs><rect width="100%" height="100%" style="stroke:none;fill:none;stroke-linecap:round;stroke-linejoin:round;stroke-miterlimit:10"/><defs><clipPath id="cpMC4wMHw1NzYuMDB8MC4wMHwxMDguMDA="><path d="M0 0h576v108H0z" style="fill:none;stroke:#000;stroke-linecap:round;stroke-linejoin:round;stroke-miterlimit:10"/></clipPath></defs><g clip-path="url(#cpMC4wMHw1NzYuMDB8MC4wMHwxMDguMDA=)"><path d="M26.18 4.91h34.91v98.18H26.18z" style="stroke-width:.21;stroke:none;stroke-linecap:butt;stroke-linejoin:miter;fill:#785a3c;stroke-miterlimit:10"/><path d="M61.09 4.91H96v98.18H61.09z" style="stroke-width:.21;stroke:none;stroke-linecap:butt;stroke-linejoin:miter;fill:#96694b;stroke-miterlimit:10"/><path d="M96 4.91h34.91v98.18H96z" style="stroke-width:.21;stroke:none;stroke-linecap:butt;stroke-linejoin:miter;fill:#a5784b;stroke-miterlimit:10"/><path d="M130.91 4.91h34.91v98.18h-34.91z" style="stroke-width:.21;stroke:none;stroke-linecap:butt;stroke-linejoin:miter;fill:#c3965a;stroke-miterlimit:10"/><path d="M165.82 4.91h34.91v98.18h-34.91z" style="stroke-width:.21;stroke:none;stroke-linecap:butt;stroke-linejoin:miter;fill:#f0c35a;stroke-miterlimit:10"/><path d="M200.73 4.91h34.91v98.18h-34.91z" style="stroke-width:.21;stroke:none;stroke-linecap:butt;stroke-linejoin:miter;fill:#f0d269;stroke-miterlimit:10"/><path d="M235.64 4.91h34.91v98.18h-34.91z" style="stroke-width:.21;stroke:none;stroke-linecap:butt;stroke-linejoin:miter;fill:#b43c3c;stroke-miterlimit:10"/><path d="M270.55 4.91h34.91v98.18h-34.91z" style="stroke-width:.21;stroke:none;stroke-linecap:butt;stroke-linejoin:miter;fill:#b44b4b;stroke-miterlimit:10"/><path d="M305.45 4.91h34.91v98.18h-34.91z" style="stroke-width:.21;stroke:none;stroke-linecap:butt;stroke-linejoin:miter;fill:#d2d2d2;stroke-miterlimit:10"/><path d="M340.36 4.91h34.91v98.18h-34.91z" style="stroke-width:.21;stroke:none;stroke-linecap:butt;stroke-linejoin:miter;fill:#787896;stroke-miterlimit:10"/><path d="M375.27 4.91h34.91v98.18h-34.91z" style="stroke-width:.21;stroke:none;stroke-linecap:butt;stroke-linejoin:miter;fill:#5a5a78;stroke-miterlimit:10"/><path d="M410.18 4.91h34.91v98.18h-34.91z" style="stroke-width:.21;stroke:none;stroke-linecap:butt;stroke-linejoin:miter;fill:#4b3c5a;stroke-miterlimit:10"/><path d="M445.09 4.91H480v98.18h-34.91z" style="stroke-width:.21;stroke:none;stroke-linecap:butt;stroke-linejoin:miter;fill:#3c2d3c;stroke-miterlimit:10"/><path d="M480 4.91h34.91v98.18H480z" style="stroke-width:.21;stroke:none;stroke-linecap:butt;stroke-linejoin:miter;fill:#2d1e2d;stroke-miterlimit:10"/><path d="M514.91 4.91h34.91v98.18h-34.91z" style="stroke-width:.21;stroke:none;stroke-linecap:butt;stroke-linejoin:miter;fill:#69875a;stroke-miterlimit:10"/></g></svg>