<svg xmlns="http://www.w3.org/2000/svg" width="768" height="144" class="svglite" viewBox="0 0 576 108"><defs><style></style></defs><rect width="100%" height="100%" style="stroke:none;fill:none;stroke-linecap:round;stroke-linejoin:round;stroke-miterlimit:10"/><defs><clipPath id="cpMC4wMHw1NzYuMDB8MC4wMHwxMDguMDA="><path d="M0 0h576v108H0z" style="fill:none;stroke:#000;stroke-linecap:round;stroke-linejoin:round;stroke-miterlimit:10"/></clipPath></defs><g clip-path="url(#cpMC4wMHw1NzYuMDB8MC4wMHwxMDguMDA=)"><path d="M26.18 4.91h43.64v98.18H26.18z" style="stroke-width:.21;stroke:none;stroke-linecap:butt;stroke-linejoin:miter;fill:#7ca0d4;stroke-miterlimit:10"/><path d="M69.82 4.91h43.64v98.18H69.82z" style="stroke-width:.21;stroke:none;stroke-linecap:butt;stroke-linejoin:miter;fill:#a48ad3;stroke-miterlimit:10"/><path d="M113.45 4.91h43.64v98.18h-43.64z" style="stroke-width:.21;stroke:none;stroke-linecap:butt;stroke-linejoin:miter;fill:#e995eb;stroke-miterlimit:10"/><path d="M157.09 4.91h43.64v98.18h-43.64z" style="stroke-width:.21;stroke:none;stroke-linecap:butt;stroke-linejoin:miter;fill:#bade86;stroke-miterlimit:10"/><path d="M200.73 4.91h43.64v98.18h-43.64z" style="stroke-width:.21;stroke:none;stroke-linecap:butt;stroke-linejoin:miter;fill:#2b8aae;stroke-miterlimit:10"/><path d="M244.36 4.91H288v98.18h-43.64z" style="stroke-width:.21;stroke:none;stroke-linecap:butt;stroke-linejoin:miter;fill:#624894;stroke-miterlimit:10"/><path d="M288 4.91h43.64v98.18H288z" style="stroke-width:.21;stroke:none;stroke-linecap:butt;stroke-linejoin:miter;fill:#de757b;stroke-miterlimit:10"/><path d="M331.64 4.91h43.64v98.18h-43.64z" style="stroke-width:.21;stroke:none;stroke-linecap:butt;stroke-linejoin:miter;fill:#8ba56f;stroke-miterlimit:10"/><path d="M375.27 4.91h43.64v98.18h-43.64z" style="stroke-width:.21;stroke:none;stroke-linecap:butt;stroke-linejoin:miter;fill:#073f80;stroke-miterlimit:10"/><path d="M418.91 4.91h43.64v98.18h-43.64z" style="stroke-width:.21;stroke:none;stroke-linecap:butt;stroke-linejoin:miter;fill:#40007f;stroke-miterlimit:10"/><path d="M462.55 4.91h43.64v98.18h-43.64z" style="stroke-width:.21;stroke:none;stroke-linecap:butt;stroke-linejoin:miter;fill:#80003f;stroke-miterlimit:10"/><path d="M506.18 4.91h43.64v98.18h-43.64z" style="stroke-width:.21;stroke:none;stroke-linecap:butt;stroke-linejoin:miter;fill:#0a522a;stroke-miterlimit:10"/></g></svg>