<svg xmlns="http://www.w3.org/2000/svg" width="768" height="144" class="svglite" viewBox="0 0 576 108"><defs><style></style></defs><rect width="100%" height="100%" style="stroke:none;fill:none;stroke-linecap:round;stroke-linejoin:round;stroke-miterlimit:10"/><defs><clipPath id="cpMC4wMHw1NzYuMDB8MC4wMHwxMDguMDA="><path d="M0 0h576v108H0z" style="fill:none;stroke:#000;stroke-linecap:round;stroke-linejoin:round;stroke-miterlimit:10"/></clipPath></defs><g clip-path="url(#cpMC4wMHw1NzYuMDB8MC4wMHwxMDguMDA=)"><path d="M26.18 4.91h30.8v98.18h-30.8z" style="stroke-width:.21;stroke:none;stroke-linecap:butt;stroke-linejoin:miter;fill:#ff9c00;stroke-miterlimit:10"/><path d="M56.98 4.91h30.8v98.18h-30.8z" style="stroke-width:.21;stroke:none;stroke-linecap:butt;stroke-linejoin:miter;fill:#f7bd5a;stroke-miterlimit:10"/><path d="M87.79 4.91h30.8v98.18h-30.8z" style="stroke-width:.21;stroke:none;stroke-linecap:butt;stroke-linejoin:miter;fill:#fc9;stroke-miterlimit:10"/><path d="M118.59 4.91h30.8v98.18h-30.8z" style="stroke-width:.21;stroke:none;stroke-linecap:butt;stroke-linejoin:miter;fill:#ff3;stroke-miterlimit:10"/><path d="M149.39 4.91h30.8v98.18h-30.8z" style="stroke-width:.21;stroke:none;stroke-linecap:butt;stroke-linejoin:miter;fill:#ffff9c;stroke-miterlimit:10"/><path d="M180.19 4.91h30.8v98.18h-30.8z" style="stroke-width:.21;stroke:none;stroke-linecap:butt;stroke-linejoin:miter;fill:#cd6363;stroke-miterlimit:10"/><path d="M210.99 4.91h30.8v98.18h-30.8z" style="stroke-width:.21;stroke:none;stroke-linecap:butt;stroke-linejoin:miter;fill:#c9c;stroke-miterlimit:10"/><path d="M241.8 4.91h30.8v98.18h-30.8z" style="stroke-width:.21;stroke:none;stroke-linecap:butt;stroke-linejoin:miter;fill:#ff9e63;stroke-miterlimit:10"/><path d="M272.6 4.91h30.8v98.18h-30.8z" style="stroke-width:.21;stroke:none;stroke-linecap:butt;stroke-linejoin:miter;fill:#646dcc;stroke-miterlimit:10"/><path d="M303.4 4.91h30.8v98.18h-30.8z" style="stroke-width:.21;stroke:none;stroke-linecap:butt;stroke-linejoin:miter;fill:#9c9cff;stroke-miterlimit:10"/><path d="M334.2 4.91H365v98.18h-30.8z" style="stroke-width:.21;stroke:none;stroke-linecap:butt;stroke-linejoin:miter;fill:#39f;stroke-miterlimit:10"/><path d="M365.01 4.91h30.8v98.18h-30.8z" style="stroke-width:.21;stroke:none;stroke-linecap:butt;stroke-linejoin:miter;fill:#9cf;stroke-miterlimit:10"/><path d="M395.81 4.91h30.8v98.18h-30.8z" style="stroke-width:.21;stroke:none;stroke-linecap:butt;stroke-linejoin:miter;fill:#ffc;stroke-miterlimit:10"/><path d="M426.61 4.91h30.8v98.18h-30.8z" style="stroke-width:.21;stroke:none;stroke-linecap:butt;stroke-linejoin:miter;fill:#b1957a;stroke-miterlimit:10"/><path d="M457.41 4.91h30.8v98.18h-30.8z" style="stroke-width:.21;stroke:none;stroke-linecap:butt;stroke-linejoin:miter;fill:#ed884c;stroke-miterlimit:10"/><path d="M488.21 4.91h30.8v98.18h-30.8z" style="stroke-width:.21;stroke:none;stroke-linecap:butt;stroke-linejoin:miter;fill:#f5ed00;stroke-miterlimit:10"/><path d="M519.02 4.91h30.8v98.18h-30.8z" style="stroke-width:.21;stroke:none;stroke-linecap:butt;stroke-linejoin:miter;fill:#dff;stroke-miterlimit:10"/></g></svg>