<svg xmlns="http://www.w3.org/2000/svg" width="768" height="144" class="svglite" viewBox="0 0 576 108"><defs><style></style></defs><rect width="100%" height="100%" style="stroke:none;fill:none;stroke-linecap:round;stroke-linejoin:round;stroke-miterlimit:10"/><defs><clipPath id="cpMC4wMHw1NzYuMDB8MC4wMHwxMDguMDA="><path d="M0 0h576v108H0z" style="fill:none;stroke:#000;stroke-linecap:round;stroke-linejoin:round;stroke-miterlimit:10"/></clipPath></defs><g clip-path="url(#cpMC4wMHw1NzYuMDB8MC4wMHwxMDguMDA=)"><path d="M26.18 4.91h32.73v98.18H26.18z" style="stroke-width:.21;stroke:none;stroke-linecap:butt;stroke-linejoin:miter;fill:#c8c8c8;stroke-miterlimit:10"/><path d="M58.91 4.91h32.73v98.18H58.91z" style="stroke-width:.21;stroke:none;stroke-linecap:butt;stroke-linejoin:miter;fill:#bdbdbd;stroke-miterlimit:10"/><path d="M91.64 4.91h32.73v98.18H91.64z" style="stroke-width:.21;stroke:none;stroke-linecap:butt;stroke-linejoin:miter;fill:#b2b2b2;stroke-miterlimit:10"/><path d="M124.36 4.91h32.73v98.18h-32.73z" style="stroke-width:.21;stroke:none;stroke-linecap:butt;stroke-linejoin:miter;fill:#a7a7a7;stroke-miterlimit:10"/><path d="M157.09 4.91h32.73v98.18h-32.73z" style="stroke-width:.21;stroke:none;stroke-linecap:butt;stroke-linejoin:miter;fill:#9c9c9c;stroke-miterlimit:10"/><path d="M189.82 4.91h32.73v98.18h-32.73z" style="stroke-width:.21;stroke:none;stroke-linecap:butt;stroke-linejoin:miter;fill:#919191;stroke-miterlimit:10"/><path d="M222.55 4.91h32.73v98.18h-32.73z" style="stroke-width:.21;stroke:none;stroke-linecap:butt;stroke-linejoin:miter;fill:#868686;stroke-miterlimit:10"/><path d="M255.27 4.91H288v98.18h-32.73z" style="stroke-width:.21;stroke:none;stroke-linecap:butt;stroke-linejoin:miter;fill:#7b7b7b;stroke-miterlimit:10"/><path d="M288 4.91h32.73v98.18H288z" style="stroke-width:.21;stroke:none;stroke-linecap:butt;stroke-linejoin:miter;fill:#707070;stroke-miterlimit:10"/><path d="M320.73 4.91h32.73v98.18h-32.73z" style="stroke-width:.21;stroke:none;stroke-linecap:butt;stroke-linejoin:miter;fill:#656565;stroke-miterlimit:10"/><path d="M353.45 4.91h32.73v98.18h-32.73z" style="stroke-width:.21;stroke:none;stroke-linecap:butt;stroke-linejoin:miter;fill:#5a5a5a;stroke-miterlimit:10"/><path d="M386.18 4.91h32.73v98.18h-32.73z" style="stroke-width:.21;stroke:none;stroke-linecap:butt;stroke-linejoin:miter;fill:#4f4f4f;stroke-miterlimit:10"/><path d="M418.91 4.91h32.73v98.18h-32.73z" style="stroke-width:.21;stroke:none;stroke-linecap:butt;stroke-linejoin:miter;fill:#444;stroke-miterlimit:10"/><path d="M451.64 4.91h32.73v98.18h-32.73z" style="stroke-width:.21;stroke:none;stroke-linecap:butt;stroke-linejoin:miter;fill:#393939;stroke-miterlimit:10"/><path d="M484.36 4.91h32.73v98.18h-32.73z" style="stroke-width:.21;stroke:none;stroke-linecap:butt;stroke-linejoin:miter;fill:#2e2e2e;stroke-miterlimit:10"/><path d="M517.09 4.91h32.73v98.18h-32.73z" style="stroke-width:.21;stroke:none;stroke-linecap:butt;stroke-linejoin:miter;fill:#232323;stroke-miterlimit:10"/></g></svg>