<svg xmlns="http://www.w3.org/2000/svg" width="768" height="144" class="svglite" viewBox="0 0 576 108"><defs><style></style></defs><rect width="100%" height="100%" style="stroke:none;fill:none;stroke-linecap:round;stroke-linejoin:round;stroke-miterlimit:10"/><defs><clipPath id="cpMC4wMHw1NzYuMDB8MC4wMHwxMDguMDA="><path d="M0 0h576v108H0z" style="fill:none;stroke:#000;stroke-linecap:round;stroke-linejoin:round;stroke-miterlimit:10"/></clipPath></defs><g clip-path="url(#cpMC4wMHw1NzYuMDB8MC4wMHwxMDguMDA=)"><path d="M26.18 4.91h43.64v98.18H26.18z" style="stroke-width:.21;stroke:none;stroke-linecap:butt;stroke-linejoin:miter;fill:#78a8d1;stroke-miterlimit:10"/><path d="M69.82 4.91h43.64v98.18H69.82z" style="stroke-width:.21;stroke:none;stroke-linecap:butt;stroke-linejoin:miter;fill:#d5bf98;stroke-miterlimit:10"/><path d="M113.45 4.91h43.64v98.18h-43.64z" style="stroke-width:.21;stroke:none;stroke-linecap:butt;stroke-linejoin:miter;fill:#e3c78f;stroke-miterlimit:10"/><path d="M157.09 4.91h43.64v98.18h-43.64z" style="stroke-width:.21;stroke:none;stroke-linecap:butt;stroke-linejoin:miter;fill:#fdf9f8;stroke-miterlimit:10"/><path d="M200.73 4.91h43.64v98.18h-43.64z" style="stroke-width:.21;stroke:none;stroke-linecap:butt;stroke-linejoin:miter;fill:#867d6c;stroke-miterlimit:10"/><path d="M244.36 4.91H288v98.18h-43.64z" style="stroke-width:.21;stroke:none;stroke-linecap:butt;stroke-linejoin:miter;fill:#a04437;stroke-miterlimit:10"/><path d="M288 4.91h43.64v98.18H288z" style="stroke-width:.21;stroke:none;stroke-linecap:butt;stroke-linejoin:miter;fill:#af7366;stroke-miterlimit:10"/><path d="M331.64 4.91h43.64v98.18h-43.64z" style="stroke-width:.21;stroke:none;stroke-linecap:butt;stroke-linejoin:miter;fill:#efbf6a;stroke-miterlimit:10"/><path d="M375.27 4.91h43.64v98.18h-43.64z" style="stroke-width:.21;stroke:none;stroke-linecap:butt;stroke-linejoin:miter;fill:#8e7c56;stroke-miterlimit:10"/><path d="M418.91 4.91h43.64v98.18h-43.64z" style="stroke-width:.21;stroke:none;stroke-linecap:butt;stroke-linejoin:miter;fill:#cdd4e4;stroke-miterlimit:10"/><path d="M462.55 4.91h43.64v98.18h-43.64z" style="stroke-width:.21;stroke:none;stroke-linecap:butt;stroke-linejoin:miter;fill:#8b6c4f;stroke-miterlimit:10"/><path d="M506.18 4.91h43.64v98.18h-43.64z" style="stroke-width:.21;stroke:none;stroke-linecap:butt;stroke-linejoin:miter;fill:#b4b7b9;stroke-miterlimit:10"/></g></svg>