<svg xmlns="http://www.w3.org/2000/svg" width="768" height="144" class="svglite" viewBox="0 0 576 108"><defs><style></style></defs><rect width="100%" height="100%" style="stroke:none;fill:none;stroke-linecap:round;stroke-linejoin:round;stroke-miterlimit:10"/><defs><clipPath id="cpMC4wMHw1NzYuMDB8MC4wMHwxMDguMDA="><path d="M0 0h576v108H0z" style="fill:none;stroke:#000;stroke-linecap:round;stroke-linejoin:round;stroke-miterlimit:10"/></clipPath></defs><g clip-path="url(#cpMC4wMHw1NzYuMDB8MC4wMHwxMDguMDA=)"><path d="M26.18 4.91h26.18v98.18H26.18z" style="stroke-width:.21;stroke:none;stroke-linecap:butt;stroke-linejoin:miter;fill:#3182bd;stroke-miterlimit:10"/><path d="M52.36 4.91h26.18v98.18H52.36z" style="stroke-width:.21;stroke:none;stroke-linecap:butt;stroke-linejoin:miter;fill:#e6550d;stroke-miterlimit:10"/><path d="M78.55 4.91h26.18v98.18H78.55z" style="stroke-width:.21;stroke:none;stroke-linecap:butt;stroke-linejoin:miter;fill:#31a354;stroke-miterlimit:10"/><path d="M104.73 4.91h26.18v98.18h-26.18z" style="stroke-width:.21;stroke:none;stroke-linecap:butt;stroke-linejoin:miter;fill:#756bb1;stroke-miterlimit:10"/><path d="M130.91 4.91h26.18v98.18h-26.18z" style="stroke-width:.21;stroke:none;stroke-linecap:butt;stroke-linejoin:miter;fill:#636363;stroke-miterlimit:10"/><path d="M157.09 4.91h26.18v98.18h-26.18z" style="stroke-width:.21;stroke:none;stroke-linecap:butt;stroke-linejoin:miter;fill:#6baed6;stroke-miterlimit:10"/><path d="M183.27 4.91h26.18v98.18h-26.18z" style="stroke-width:.21;stroke:none;stroke-linecap:butt;stroke-linejoin:miter;fill:#fd8d3c;stroke-miterlimit:10"/><path d="M209.45 4.91h26.18v98.18h-26.18z" style="stroke-width:.21;stroke:none;stroke-linecap:butt;stroke-linejoin:miter;fill:#74c476;stroke-miterlimit:10"/><path d="M235.64 4.91h26.18v98.18h-26.18z" style="stroke-width:.21;stroke:none;stroke-linecap:butt;stroke-linejoin:miter;fill:#9e9ac8;stroke-miterlimit:10"/><path d="M261.82 4.91H288v98.18h-26.18z" style="stroke-width:.21;stroke:none;stroke-linecap:butt;stroke-linejoin:miter;fill:#969696;stroke-miterlimit:10"/><path d="M288 4.91h26.18v98.18H288z" style="stroke-width:.21;stroke:none;stroke-linecap:butt;stroke-linejoin:miter;fill:#9ecae1;stroke-miterlimit:10"/><path d="M314.18 4.91h26.18v98.18h-26.18z" style="stroke-width:.21;stroke:none;stroke-linecap:butt;stroke-linejoin:miter;fill:#fdae6b;stroke-miterlimit:10"/><path d="M340.36 4.91h26.18v98.18h-26.18z" style="stroke-width:.21;stroke:none;stroke-linecap:butt;stroke-linejoin:miter;fill:#a1d99b;stroke-miterlimit:10"/><path d="M366.55 4.91h26.18v98.18h-26.18z" style="stroke-width:.21;stroke:none;stroke-linecap:butt;stroke-linejoin:miter;fill:#bcbddc;stroke-miterlimit:10"/><path d="M392.73 4.91h26.18v98.18h-26.18z" style="stroke-width:.21;stroke:none;stroke-linecap:butt;stroke-linejoin:miter;fill:#bdbdbd;stroke-miterlimit:10"/><path d="M418.91 4.91h26.18v98.18h-26.18z" style="stroke-width:.21;stroke:none;stroke-linecap:butt;stroke-linejoin:miter;fill:#c6dbef;stroke-miterlimit:10"/><path d="M445.09 4.91h26.18v98.18h-26.18z" style="stroke-width:.21;stroke:none;stroke-linecap:butt;stroke-linejoin:miter;fill:#fdd0a2;stroke-miterlimit:10"/><path d="M471.27 4.91h26.18v98.18h-26.18z" style="stroke-width:.21;stroke:none;stroke-linecap:butt;stroke-linejoin:miter;fill:#c7e9c0;stroke-miterlimit:10"/><path d="M497.45 4.91h26.18v98.18h-26.18z" style="stroke-width:.21;stroke:none;stroke-linecap:butt;stroke-linejoin:miter;fill:#dadaeb;stroke-miterlimit:10"/><path d="M523.64 4.91h26.18v98.18h-26.18z" style="stroke-width:.21;stroke:none;stroke-linecap:butt;stroke-linejoin:miter;fill:#d9d9d9;stroke-miterlimit:10"/></g></svg>