<svg xmlns="http://www.w3.org/2000/svg" width="768" height="144" class="svglite" viewBox="0 0 576 108"><defs><style></style></defs><rect width="100%" height="100%" style="stroke:none;fill:none;stroke-linecap:round;stroke-linejoin:round;stroke-miterlimit:10"/><defs><clipPath id="cpMC4wMHw1NzYuMDB8MC4wMHwxMDguMDA="><path d="M0 0h576v108H0z" style="fill:none;stroke:#000;stroke-linecap:round;stroke-linejoin:round;stroke-miterlimit:10"/></clipPath></defs><g clip-path="url(#cpMC4wMHw1NzYuMDB8MC4wMHwxMDguMDA=)"><path d="M26.18 4.91h34.91v98.18H26.18z" style="stroke-width:.21;stroke:none;stroke-linecap:butt;stroke-linejoin:miter;fill:#60b080;stroke-miterlimit:10"/><path d="M61.09 4.91H96v98.18H61.09z" style="stroke-width:.21;stroke:none;stroke-linecap:butt;stroke-linejoin:miter;fill:#508858;stroke-miterlimit:10"/><path d="M96 4.91h34.91v98.18H96z" style="stroke-width:.21;stroke:none;stroke-linecap:butt;stroke-linejoin:miter;fill:#000;stroke-miterlimit:10"/><path d="M130.91 4.91h34.91v98.18h-34.91z" style="stroke-width:.21;stroke:none;stroke-linecap:butt;stroke-linejoin:miter;fill:#406040;stroke-miterlimit:10"/><path d="M165.82 4.91h34.91v98.18h-34.91z" style="stroke-width:.21;stroke:none;stroke-linecap:butt;stroke-linejoin:miter;fill:#d8c058;stroke-miterlimit:10"/><path d="M200.73 4.91h34.91v98.18h-34.91z" style="stroke-width:.21;stroke:none;stroke-linecap:butt;stroke-linejoin:miter;fill:#f0e878;stroke-miterlimit:10"/><path d="M235.64 4.91h34.91v98.18h-34.91z" style="stroke-width:.21;stroke:none;stroke-linecap:butt;stroke-linejoin:miter;fill:#887858;stroke-miterlimit:10"/><path d="M270.55 4.91h34.91v98.18h-34.91z" style="stroke-width:.21;stroke:none;stroke-linecap:butt;stroke-linejoin:miter;fill:#78d088;stroke-miterlimit:10"/><path d="M305.45 4.91h34.91v98.18h-34.91z" style="stroke-width:.21;stroke:none;stroke-linecap:butt;stroke-linejoin:miter;fill:#a0e898;stroke-miterlimit:10"/><path d="M340.36 4.91h34.91v98.18h-34.91z" style="stroke-width:.21;stroke:none;stroke-linecap:butt;stroke-linejoin:miter;fill:#b85840;stroke-miterlimit:10"/><path d="M375.27 4.91h34.91v98.18h-34.91z" style="stroke-width:.21;stroke:none;stroke-linecap:butt;stroke-linejoin:miter;fill:#c0a848;stroke-miterlimit:10"/><path d="M410.18 4.91h34.91v98.18h-34.91z" style="stroke-width:.21;stroke:none;stroke-linecap:butt;stroke-linejoin:miter;fill:#e86848;stroke-miterlimit:10"/><path d="M445.09 4.91H480v98.18h-34.91z" style="stroke-width:.21;stroke:none;stroke-linecap:butt;stroke-linejoin:miter;fill:#a8c078;stroke-miterlimit:10"/><path d="M480 4.91h34.91v98.18H480z" style="stroke-width:.21;stroke:none;stroke-linecap:butt;stroke-linejoin:miter;fill:#884838;stroke-miterlimit:10"/><path d="M514.91 4.91h34.91v98.18h-34.91z" style="stroke-width:.21;stroke:none;stroke-linecap:butt;stroke-linejoin:miter;fill:#f8f8f8;stroke-miterlimit:10"/></g></svg>