<svg xmlns="http://www.w3.org/2000/svg" width="768" height="144" class="svglite" viewBox="0 0 576 108"><defs><style></style></defs><rect width="100%" height="100%" style="stroke:none;fill:none;stroke-linecap:round;stroke-linejoin:round;stroke-miterlimit:10"/><defs><clipPath id="cpMC4wMHw1NzYuMDB8MC4wMHwxMDguMDA="><path d="M0 0h576v108H0z" style="fill:none;stroke:#000;stroke-linecap:round;stroke-linejoin:round;stroke-miterlimit:10"/></clipPath></defs><g clip-path="url(#cpMC4wMHw1NzYuMDB8MC4wMHwxMDguMDA=)"><path d="M26.18 4.91h47.6v98.18h-47.6z" style="stroke-width:.21;stroke:none;stroke-linecap:butt;stroke-linejoin:miter;fill:#135078;stroke-miterlimit:10"/><path d="M73.79 4.91h47.6v98.18h-47.6z" style="stroke-width:.21;stroke:none;stroke-linecap:butt;stroke-linejoin:miter;fill:#f0f0f0;stroke-miterlimit:10"/><path d="M121.39 4.91h47.6v98.18h-47.6z" style="stroke-width:.21;stroke:none;stroke-linecap:butt;stroke-linejoin:miter;fill:#f1f14c;stroke-miterlimit:10"/><path d="M168.99 4.91h47.6v98.18h-47.6z" style="stroke-width:.21;stroke:none;stroke-linecap:butt;stroke-linejoin:miter;fill:#135078;stroke-miterlimit:10"/><path d="M216.6 4.91h47.6v98.18h-47.6z" style="stroke-width:.21;stroke:none;stroke-linecap:butt;stroke-linejoin:miter;fill:#f94240;stroke-miterlimit:10"/><path d="M264.2 4.91h47.6v98.18h-47.6z" style="stroke-width:.21;stroke:none;stroke-linecap:butt;stroke-linejoin:miter;fill:#cbe9fd;stroke-miterlimit:10"/><path d="M311.8 4.91h47.6v98.18h-47.6z" style="stroke-width:.21;stroke:none;stroke-linecap:butt;stroke-linejoin:miter;fill:#f9a765;stroke-miterlimit:10"/><path d="M359.4 4.91H407v98.18h-47.6z" style="stroke-width:.21;stroke:none;stroke-linecap:butt;stroke-linejoin:miter;fill:#092639;stroke-miterlimit:10"/><path d="M407.01 4.91h47.6v98.18h-47.6z" style="stroke-width:.21;stroke:none;stroke-linecap:butt;stroke-linejoin:miter;fill:#c5430b;stroke-miterlimit:10"/><path d="M454.61 4.91h47.6v98.18h-47.6z" style="stroke-width:.21;stroke:none;stroke-linecap:butt;stroke-linejoin:miter;fill:#c5c40b;stroke-miterlimit:10"/><path d="M502.21 4.91h47.6v98.18h-47.6z" style="stroke-width:.21;stroke:none;stroke-linecap:butt;stroke-linejoin:miter;fill:#8acefb;stroke-miterlimit:10"/></g></svg>