<svg xmlns="http://www.w3.org/2000/svg" width="768" height="144" class="svglite" viewBox="0 0 576 108"><defs><style></style></defs><rect width="100%" height="100%" style="stroke:none;fill:none;stroke-linecap:round;stroke-linejoin:round;stroke-miterlimit:10"/><defs><clipPath id="cpMC4wMHw1NzYuMDB8MC4wMHwxMDguMDA="><path d="M0 0h576v108H0z" style="fill:none;stroke:#000;stroke-linecap:round;stroke-linejoin:round;stroke-miterlimit:10"/></clipPath></defs><g clip-path="url(#cpMC4wMHw1NzYuMDB8MC4wMHwxMDguMDA=)"><path d="M26.18 4.91h26.18v98.18H26.18z" style="stroke-width:.21;stroke:none;stroke-linecap:butt;stroke-linejoin:miter;fill:#393b79;stroke-miterlimit:10"/><path d="M52.36 4.91h26.18v98.18H52.36z" style="stroke-width:.21;stroke:none;stroke-linecap:butt;stroke-linejoin:miter;fill:#637939;stroke-miterlimit:10"/><path d="M78.55 4.91h26.18v98.18H78.55z" style="stroke-width:.21;stroke:none;stroke-linecap:butt;stroke-linejoin:miter;fill:#8c6d31;stroke-miterlimit:10"/><path d="M104.73 4.91h26.18v98.18h-26.18z" style="stroke-width:.21;stroke:none;stroke-linecap:butt;stroke-linejoin:miter;fill:#843c39;stroke-miterlimit:10"/><path d="M130.91 4.91h26.18v98.18h-26.18z" style="stroke-width:.21;stroke:none;stroke-linecap:butt;stroke-linejoin:miter;fill:#7b4173;stroke-miterlimit:10"/><path d="M157.09 4.91h26.18v98.18h-26.18z" style="stroke-width:.21;stroke:none;stroke-linecap:butt;stroke-linejoin:miter;fill:#5254a3;stroke-miterlimit:10"/><path d="M183.27 4.91h26.18v98.18h-26.18z" style="stroke-width:.21;stroke:none;stroke-linecap:butt;stroke-linejoin:miter;fill:#8ca252;stroke-miterlimit:10"/><path d="M209.45 4.91h26.18v98.18h-26.18z" style="stroke-width:.21;stroke:none;stroke-linecap:butt;stroke-linejoin:miter;fill:#bd9e39;stroke-miterlimit:10"/><path d="M235.64 4.91h26.18v98.18h-26.18z" style="stroke-width:.21;stroke:none;stroke-linecap:butt;stroke-linejoin:miter;fill:#ad494a;stroke-miterlimit:10"/><path d="M261.82 4.91H288v98.18h-26.18z" style="stroke-width:.21;stroke:none;stroke-linecap:butt;stroke-linejoin:miter;fill:#a55194;stroke-miterlimit:10"/><path d="M288 4.91h26.18v98.18H288z" style="stroke-width:.21;stroke:none;stroke-linecap:butt;stroke-linejoin:miter;fill:#6b6ecf;stroke-miterlimit:10"/><path d="M314.18 4.91h26.18v98.18h-26.18z" style="stroke-width:.21;stroke:none;stroke-linecap:butt;stroke-linejoin:miter;fill:#b5cf6b;stroke-miterlimit:10"/><path d="M340.36 4.91h26.18v98.18h-26.18z" style="stroke-width:.21;stroke:none;stroke-linecap:butt;stroke-linejoin:miter;fill:#e7ba52;stroke-miterlimit:10"/><path d="M366.55 4.91h26.18v98.18h-26.18z" style="stroke-width:.21;stroke:none;stroke-linecap:butt;stroke-linejoin:miter;fill:#d6616b;stroke-miterlimit:10"/><path d="M392.73 4.91h26.18v98.18h-26.18z" style="stroke-width:.21;stroke:none;stroke-linecap:butt;stroke-linejoin:miter;fill:#ce6dbd;stroke-miterlimit:10"/><path d="M418.91 4.91h26.18v98.18h-26.18z" style="stroke-width:.21;stroke:none;stroke-linecap:butt;stroke-linejoin:miter;fill:#9c9ede;stroke-miterlimit:10"/><path d="M445.09 4.91h26.18v98.18h-26.18z" style="stroke-width:.21;stroke:none;stroke-linecap:butt;stroke-linejoin:miter;fill:#cedb9c;stroke-miterlimit:10"/><path d="M471.27 4.91h26.18v98.18h-26.18z" style="stroke-width:.21;stroke:none;stroke-linecap:butt;stroke-linejoin:miter;fill:#e7cb94;stroke-miterlimit:10"/><path d="M497.45 4.91h26.18v98.18h-26.18z" style="stroke-width:.21;stroke:none;stroke-linecap:butt;stroke-linejoin:miter;fill:#e7969c;stroke-miterlimit:10"/><path d="M523.64 4.91h26.18v98.18h-26.18z" style="stroke-width:.21;stroke:none;stroke-linecap:butt;stroke-linejoin:miter;fill:#de9ed6;stroke-miterlimit:10"/></g></svg>